<svg viewBox="0 0 1186 1024" width="20" height="20" xmlns="http://www.w3.org/2000/svg" class="icon" version="1.1">
    <g>
        <title>Layer 1</title>
        <path d="m869.28218,780.99942zm-218.26384,236.68519l-453.89604,0c-106.82482,0 -193.72573,-86.90091 -193.72573,-193.72573l0,-623.9355c0,-106.81299 86.90091,-193.7139 193.72573,-193.7139l623.90001,0c106.82482,0 193.72572,86.90091 193.72572,193.7139l0,246.61164a25.11785,25.11785 0 0 1 -50.22387,0l0,-246.61164a143.65566,143.65566 0 0 0 -143.50185,-143.49003l-623.90001,0a143.65566,143.65566 0 0 0 -143.50186,143.49003l0,623.9355a143.66749,143.66749 0 0 0 143.50186,143.50185l453.89604,0a25.11785,25.11785 0 1 1 0,50.22388z"
              id="svg_1" fill="#000000"/>
        <path d="m414.56978,530.28527s0,12.94344 -0.55607,18.56331c-6.75567,132.19113 -13.49951,182.20204 -28.6909,199.6887c-9.55969,11.25157 -20.24336,15.17956 -36.55872,16.87144c-13.49952,1.12397 -40.49855,1.12397 -67.49758,-0.5679a101.08664,101.08664 0 0 0 -13.49951,-41.05462c27.5551,2.81585 54.56596,3.37192 65.24963,3.37192c9.00362,0 14.06741,-1.12397 19.68728,-6.18777c9.55969,-10.64817 15.74746,-51.18221 21.36733,-153.55846l-114.76362,0c3.93982,-42.74649 6.18777,-111.36804 6.18777,-163.11815l108.55219,0l0,-86.08455l-116.96425,0l0,-37.65903l156.93038,0l0,161.42628l-112.50384,0c-0.55607,29.81487 -1.68005,61.3098 -2.80402,88.30883l115.86393,0zm346.49149,133.87117l-145.67881,0l0,104.11545l-42.19042,0l0,-104.11545l-150.74261,0l0,-37.68269l150.74261,0l0,-46.14208l-118.11188,0l0,-207.04777l156.93038,0c21.93523,-32.6189 47.24239,-81.55316 61.86587,-117.55581l42.19042,13.49952c-18.56331,34.87867 -41.06644,74.25324 -60.75373,104.05629l81.56499,0l0,207.04777l-121.49563,0l0,46.14208l145.67881,0l0,37.68269zm-227.79987,-300.92915c-10.1276,-24.18318 -33.1868,-62.43377 -53.99806,-89.4328l33.74287,-15.17956c21.37916,26.99903 44.43837,62.98985 54.56596,87.18486l-34.31077,17.4275zm-39.97797,97.31246l79.87312,0l0,-53.43016l-79.87312,0l0,53.43016zm79.90861,86.01356l0,-53.95074l-79.90861,0l0,53.95074l79.90861,0zm123.75541,-139.49104l-81.56499,0l0,53.47748l81.56499,0l0,-53.47748zm0,85.49298l-81.56499,0l0,53.99806l81.56499,0l0,-53.99806z"
              id="svg_2"/>
        <path d="m944.60449,998.99966a210.01507,210.01507 0 1 1 148.50212,-61.51295a208.65539,208.65539 0 0 1 -148.50212,61.51295zm0,-376.64291c-91.87584,0 -166.63806,74.752 -166.63806,166.63806s74.752,166.63806 166.63806,166.63806s166.63806,-74.74177 166.63806,-166.63806s-74.76221,-166.63806 -166.63806,-166.63806z"
              id="svg_3" fill="#000000" stroke="null"/>
        <rect fill="#000000" x="926.88275" y="618.17472" width="37.49962" height="355.20043" id="svg_8" stroke="null"
              transform="rotate(-40.6899 945.632 795.775)"/>
    </g>
</svg>