<svg width="20" height="20" viewBox="0 0 1024 1024" xmlns="http://www.w3.org/2000/svg" version="1.1" class="icon">
    <g>
        <title>Layer 1</title>
        <path stroke="null" id="svg_1" fill="#d81e06"
              d="m511.99997,151.08197c-196.78501,0 -356.61039,162.76695 -356.61039,360.91802c0,199.16205 159.82538,360.91802 356.61039,360.91802c196.78501,0 356.61039,-161.75597 356.61039,-360.91802c0,-198.15107 -159.82538,-360.91802 -356.61039,-360.91802zm0,50.54874c75.91706,0 144.84175,28.3073 197.78392,73.80116l-431.52854,437.75212c-45.94979,-54.59265 -72.92033,-124.34991 -72.92033,-200.17302c0,-171.86572 137.8494,-311.38026 306.66496,-311.38026zm0,620.73856c-75.91706,0 -144.84175,-28.3073 -197.78392,-73.80116l431.52854,-436.74114c45.94979,54.59265 72.92033,124.34991 72.92033,200.17302c0,171.86572 -137.8494,310.36928 -306.66496,310.36928z"/>
    </g>
</svg>