<svg class="icon" viewBox="0 0 1186 1024" version="1.1" xmlns="http://www.w3.org/2000/svg"
     width="20" height="20">
    <path d="M921.49273 818.075326l-55.607116-43.385382-24.538118 19.710948 96.034672 97.300622c16.563822-42.178589 68.881836-124.607265 132.794525-183.172206l-5.91565-13.535009c-69.615377 42.521697-120.135033 96.164817-142.827469 123.045533zM647.621769 1011.375126H193.725727C86.900908 1011.375126 0 924.474218 0 817.649399V193.713896C0 86.900908 86.900908 0 193.725727 0h623.90001c106.824819 0 193.725727 86.900908 193.725726 193.713896v246.611643a25.117853 25.117853 0 0 1-50.223873 0V193.713896A143.65566 143.65566 0 0 0 817.625737 50.223874H193.725727A143.65566 143.65566 0 0 0 50.223874 193.713896v623.935503a143.667491 143.667491 0 0 0 143.501853 143.501853h453.896042a25.117853 25.117853 0 1 1 0 50.223874z"
    ></path>
    <path d="M411.185044 523.961008s0 12.943444-0.556071 18.563312c-6.755673 132.191129-13.499515 182.202039-28.690906 199.688702-9.559691 11.251568-20.243356 15.17956-36.55872 16.871436-13.499515 1.123974-40.498544 1.123974-67.497574-0.567903a101.086638 101.086638 0 0 0-13.499515-41.054615c27.555101 2.81585 54.565961 3.371921 65.249627 3.371921 9.00362 0 14.067417-1.123974 19.687285-6.187771 9.559691-10.648171 15.747462-51.182209 21.36733-153.558459h-114.763622c3.939823-42.746491 6.187771-111.368039 6.18777-163.11815h108.552189v-86.084548h-116.964244v-37.659032h156.93038v161.426274h-112.503844c-0.556071 29.814879-1.680045 61.309803-2.804018 88.308833zM757.676533 657.832182H611.997721v104.115451h-42.190421v-104.115451H419.064691v-37.682695h150.742609v-46.142075h-118.11188v-207.047772h156.93038c21.935233-32.618898 47.242386-81.55316 61.865874-117.555809l42.19042 13.499514c-18.563312 34.878676-41.066447 74.253247-60.753732 104.056295h81.564991v207.047772H611.997721v46.142075H757.676533zM529.876658 356.903034c-10.127594-24.18318-33.1868-62.433777-53.998059-89.432806l33.742872-15.17956c21.379161 26.999029 44.438368 62.989848 54.565961 87.184859z m-39.977967 97.312453h79.873115v-53.430157h-79.873115z m79.908609 86.01356v-53.950734h-79.908609v53.950734z m123.755411-139.491042h-81.56499v53.477482h81.56499z m0 85.492983h-81.56499v53.998059h81.56499z"
    ></path>
    <path d="M943.711914 1023.999124a243.050422 243.050422 0 1 1 171.861482-71.188939 241.476859 241.476859 0 0 1-171.861482 71.188939z m0-435.888801c-106.327904 0-192.850211 86.510475-192.850211 192.850211s86.510475 192.850211 192.850211 192.850211 192.850211-86.498644 192.850211-192.850211-86.522306-192.850211-192.850211-192.850211z"
    ></path>
</svg>