<svg width="1186" height="1024" xmlns="http://www.w3.org/2000/svg" class="icon" version="1.1">
    <g>
        <title>Layer 1</title>
        <g id="svg_5">
            <path d="m887.80073,780.99945zm-218.26384,236.68519l-453.89604,0c-106.82482,0 -193.72573,-86.90091 -193.72573,-193.72573l0,-623.9355c0,-106.81299 86.90091,-193.7139 193.72573,-193.7139l623.90001,0c106.82482,0 193.72572,86.90091 193.72572,193.7139l0,246.61164a25.11785,25.11785 0 0 1 -50.22387,0l0,-246.61164a143.65566,143.65566 0 0 0 -143.50185,-143.49003l-623.90001,0a143.65566,143.65566 0 0 0 -143.50186,143.49003l0,623.9355a143.66749,143.66749 0 0 0 143.50186,143.50185l453.89604,0a25.11785,25.11785 0 1 1 0,50.22388z"
                  id="svg_1" fill="#000000"/>
            <path d="m433.08833,530.2853s0,12.94344 -0.55607,18.56331c-6.75567,132.19113 -13.49951,182.20204 -28.6909,199.6887c-9.55969,11.25157 -20.24336,15.17956 -36.55872,16.87144c-13.49952,1.12397 -40.49855,1.12397 -67.49758,-0.5679a101.08664,101.08664 0 0 0 -13.49951,-41.05462c27.5551,2.81585 54.56596,3.37192 65.24963,3.37192c9.00362,0 14.06741,-1.12397 19.68728,-6.18777c9.55969,-10.64817 15.74746,-51.18221 21.36733,-153.55846l-114.76362,0c3.93982,-42.74649 6.18777,-111.36804 6.18777,-163.11815l108.55219,0l0,-86.08455l-116.96425,0l0,-37.65903l156.93038,0l0,161.42628l-112.50384,0c-0.55607,29.81487 -1.68005,61.3098 -2.80402,88.30883l115.86393,0zm346.49149,133.87117l-145.67881,0l0,104.11545l-42.19042,0l0,-104.11545l-150.74261,0l0,-37.68269l150.74261,0l0,-46.14208l-118.11188,0l0,-207.04777l156.93038,0c21.93523,-32.6189 47.24239,-81.55316 61.86587,-117.55581l42.19042,13.49952c-18.56331,34.87867 -41.06644,74.25324 -60.75373,104.05629l81.56499,0l0,207.04777l-121.49563,0l0,46.14208l145.67881,0l0,37.68269zm-227.79987,-300.92915c-10.1276,-24.18318 -33.1868,-62.43377 -53.99806,-89.4328l33.74287,-15.17956c21.37916,26.99903 44.43837,62.98985 54.56596,87.18486l-34.31077,17.4275zm-39.97797,97.31246l79.87312,0l0,-53.43016l-79.87312,0l0,53.43016zm79.90861,86.01356l0,-53.95074l-79.90861,0l0,53.95074l79.90861,0zm123.75541,-139.49104l-81.56499,0l0,53.47748l81.56499,0l0,-53.47748zm0,85.49298l-81.56499,0l0,53.99806l81.56499,0l0,-53.99806z"
                  id="svg_2"/>
        </g>
        <g stroke="null" stroke-width="3" id="svg_6">
            <path stroke="null" id="svg_3"
                  d="m941.1489,861.12893c37.37929,0 66.58186,-30.37067 66.58186,-67.74996c0,-37.37929 -30.37067,-67.74996 -66.58186,-67.74996c-37.37929,0 -66.58186,30.37067 -66.58186,67.74996c0,37.37929 30.37067,67.74996 66.58186,67.74996l0,0zm0,-18.68964c-26.86636,0 -49.06032,-22.19395 -49.06032,-49.06032c0,-26.86636 22.19395,-49.06032 49.06032,-49.06032c26.86636,0 49.06032,22.19395 49.06032,49.06032c0,26.86636 -22.19395,49.06032 -49.06032,49.06032l0,0z"/>
            <path stroke="null" id="svg_4"
                  d="m845.36446,913.69356c12.84913,10.51293 26.86636,18.68964 40.8836,24.53016c15.18534,-14.01723 35.04308,-22.19395 54.90083,-22.19395c21.02585,0 39.7155,8.17672 54.90083,22.19395c15.18534,-5.84051 29.20257,-14.01723 40.8836,-24.53016c-4.67241,-19.85775 -1.1681,-40.8836 8.17672,-59.57324c10.51293,-17.52154 26.86636,-31.53878 46.72411,-37.37929c1.1681,-8.17672 2.33621,-16.35344 2.33621,-24.53016c0,-8.17672 -1.1681,-16.35344 -2.33621,-24.53016c-19.85775,-5.84051 -36.21119,-19.85775 -46.72411,-37.37929c-10.51293,-17.52154 -12.84913,-39.7155 -8.17672,-59.57324c-12.84913,-10.51293 -26.86636,-18.68964 -40.8836,-24.53016c-15.18534,14.01723 -33.87498,22.19395 -54.90083,22.19395c-19.85775,0 -39.7155,-8.17672 -54.90083,-22.19395c-15.18534,5.84051 -29.20257,14.01723 -40.8836,24.53016c4.67241,19.85775 1.1681,40.8836 -8.17672,59.57324c-10.51293,17.52154 -26.86636,31.53878 -46.72411,37.37929c-1.1681,8.17672 -2.33621,16.35344 -2.33621,24.53016c0,8.17672 1.1681,16.35344 2.33621,24.53016c19.85775,5.84051 36.21119,19.85775 46.72411,37.37929c9.34482,18.68964 12.84913,39.7155 8.17672,59.57324m40.8836,42.0517c-19.85775,-7.00862 -38.54739,-17.52154 -54.90083,-32.70688c-2.33621,-2.33621 -3.50431,-5.84051 -2.33621,-8.17672c5.84051,-17.52154 3.50431,-36.21119 -5.84051,-51.39652c-9.34482,-16.35344 -23.36206,-26.86636 -40.8836,-30.37067c-3.50431,-1.1681 -5.84051,-3.50431 -5.84051,-7.00862c-2.33621,-10.51293 -3.50431,-22.19395 -3.50431,-32.70688c0,-10.51293 1.1681,-21.02585 3.50431,-32.70688c1.1681,-3.50431 3.50431,-5.84051 5.84051,-7.00862c17.52154,-4.67241 32.70688,-15.18534 40.8836,-30.37067c9.34482,-16.35344 10.51293,-33.87498 5.84051,-51.39652c-1.1681,-3.50431 0,-7.00862 2.33621,-8.17672c16.35344,-14.01723 35.04308,-24.53016 54.90083,-32.70688c3.50431,-1.1681 5.84051,0 8.17672,2.33621c12.84913,12.84913 29.20257,21.02585 46.72411,21.02585c17.52154,0 35.04308,-7.00862 46.72411,-21.02585c2.33621,-2.33621 5.84051,-3.50431 8.17672,-2.33621c19.85775,7.00862 38.54739,17.52154 54.90083,32.70688c2.33621,2.33621 3.50431,5.84051 2.33621,8.17672c-5.84051,17.52154 -3.50431,36.21119 5.84051,51.39652c9.34482,16.35344 23.36206,26.86636 40.8836,30.37067c3.50431,1.1681 5.84051,3.50431 5.84051,7.00862c2.33621,10.51293 3.50431,22.19395 3.50431,32.70688c0,10.51293 -1.1681,21.02585 -3.50431,32.70688c-1.1681,3.50431 -3.50431,5.84051 -5.84051,7.00862c-17.52154,4.67241 -32.70688,15.18534 -40.8836,30.37067c-9.34482,16.35344 -10.51293,33.87498 -5.84051,51.39652c1.1681,3.50431 0,7.00862 -2.33621,8.17672c-16.35344,14.01723 -35.04308,24.53016 -54.90083,32.70688c-3.50431,1.1681 -5.84051,0 -8.17672,-2.33621c-12.84913,-12.84913 -29.20257,-21.02585 -46.72411,-21.02585c-17.52154,0 -35.04308,7.00862 -46.72411,21.02585c-1.1681,1.1681 -3.50431,2.33621 -5.84051,2.33621c-1.1681,0 -2.33621,0 -2.33621,0z"/>
        </g>
    </g>

</svg>