<svg class="icon" viewBox="0 0 1024 1024" version="1.1" xmlns="http://www.w3.org/2000/svg"
     width="128" height="128">
    <path d="M102.446545 102.446545a32.023273 32.023273 0 0 1 41.285819-3.351272l3.956363 3.351272L907.636364 862.347636a31.976727 31.976727 0 0 1-41.285819 48.593455l-3.956363-3.351273L102.4 147.688727a31.976727 31.976727 0 0 1 0-45.242182z m466.432 572.229819l56.878546 56.878545v178.688c-29.416727 0-53.666909-22.388364-56.552727-51.106909l-0.325819-5.818182v-178.641454z m-142.196363-134.237091c2.978909 0 5.911273 0.232727 8.750545 0.698182l47.476364 47.429818c0.418909 2.839273 0.651636 5.771636 0.651636 8.750545v256c0 31.418182-25.460364 56.925091-56.878545 56.925091h-256a56.878545 56.878545 0 0 1-56.925091-56.925091v-256c0-31.418182 25.506909-56.878545 56.925091-56.878545h256z m272.756363 264.750545l59.81091 59.810909a42.589091 42.589091 0 0 1-76.567273-25.879272c0-13.824 6.516364-26.112 16.756363-33.931637z m153.879273-264.750545c31.418182 0 56.925091 25.460364 56.925091 56.878545v142.242909l-64.930909-0.046545-56.878545-56.878546h64.884363v-142.196363z m-85.317818 0l-0.046545 121.716363-56.878546-56.878545v-7.912727l-7.959273-0.046546-56.878545-56.878545H768zM113.757091 219.508364l264.005818 264.005818h-207.127273c-29.416727 0-53.666909-22.341818-56.552727-51.013818l-0.325818-5.818182V219.508364z m739.607273-105.751273c31.371636 0 56.878545 25.506909 56.878545 56.925091v256c0 31.418182-25.506909 56.878545-56.925091 56.878545h-256c-2.978909 0-5.911273-0.232727-8.750545-0.698182l-47.476364-47.429818a57.344 57.344 0 0 1-0.651636-8.750545v-256c0-31.418182 25.460364-56.925091 56.878545-56.925091h256z m-426.682182 0c31.418182 0 56.878545 25.506909 56.878545 56.925091l-0.046545 207.080727-264.005818-264.005818h207.127272z"
          fill="#bfbfbf" ></path>
</svg>