    <svg viewBox="0 0 1024 1024" width="100px" height="100px" repeatCount="indefinite"
        xmlns="http://www.w3.org/2000/svg" p-id="1356" version="1.1" t="1658250230265">
        <path id="svg_1" p-id="1357"
            d="m512,697.6c102.4,0 182.4,-83.2 182.4,-185.6c0,-102.4 -83.2,-185.6 -182.4,-185.6c-102.4,0 -182.4,83.2 -182.4,185.6c0,102.4 83.2,185.6 182.4,185.6l0,0zm0,-51.2c-73.6,0 -134.4,-60.8 -134.4,-134.4c0,-73.6 60.8,-134.4 134.4,-134.4c73.6,0 134.4,60.8 134.4,134.4c0,73.6 -60.8,134.4 -134.4,134.4l0,0z" />
        <path id="svg_2" p-id="1358"
            d="m249.01523,843.17859c35.2,28.8 73.6,51.2 112,67.2c41.6,-38.4 96,-60.8 150.4,-60.8c57.6,0 108.8,22.4 150.4,60.8c41.6,-16 80,-38.4 112,-67.2c-12.8,-54.4 -3.2,-112 22.4,-163.2c28.8,-48 73.6,-86.4 128,-102.4c3.2,-22.4 6.4,-44.8 6.4,-67.2c0,-22.4 -3.2,-44.8 -6.4,-67.2c-54.4,-16 -99.2,-54.4 -128,-102.4c-28.8,-48 -35.2,-108.8 -22.4,-163.2c-35.2,-28.8 -73.6,-51.2 -112,-67.2c-41.6,38.4 -92.8,60.8 -150.4,60.8c-54.4,0 -108.8,-22.4 -150.4,-60.8c-41.6,16 -80,38.4 -112,67.2c12.8,54.4 3.2,112 -22.4,163.2c-28.8,48 -73.6,86.4 -128,102.4c-3.2,22.4 -6.4,44.8 -6.4,67.2c0,22.4 3.2,44.8 6.4,67.2c54.4,16 99.2,54.4 128,102.4c25.6,51.2 35.2,108.8 22.4,163.2m112,115.2c-54.4,-19.2 -105.6,-48 -150.4,-89.6c-6.4,-6.4 -9.6,-16 -6.4,-22.4c16,-48 9.6,-99.2 -16,-140.8c-25.6,-44.8 -64,-73.6 -112,-83.2c-9.6,-3.2 -16,-9.6 -16,-19.2c-6.4,-28.8 -9.6,-60.8 -9.6,-89.6c0,-28.8 3.2,-57.6 9.6,-89.6c3.2,-9.6 9.6,-16 16,-19.2c48,-12.8 89.6,-41.6 112,-83.2c25.6,-44.8 28.8,-92.8 16,-140.8c-3.2,-9.6 0,-19.2 6.4,-22.4c44.8,-38.4 96,-67.2 150.4,-89.6c9.6,-3.2 16,0 22.4,6.4c35.2,35.2 80,57.6 128,57.6c48,0 96,-19.2 128,-57.6c6.4,-6.4 16,-9.6 22.4,-6.4c54.4,19.2 105.6,48 150.4,89.6c6.4,6.4 9.6,16 6.4,22.4c-16,48 -9.6,99.2 16,140.8c25.6,44.8 64,73.6 112,83.2c9.6,3.2 16,9.6 16,19.2c6.4,28.8 9.6,60.8 9.6,89.6c0,28.8 -3.2,57.6 -9.6,89.6c-3.2,9.6 -9.6,16 -16,19.2c-48,12.8 -89.6,41.6 -112,83.2c-25.6,44.8 -28.8,92.8 -16,140.8c3.2,9.6 0,19.2 -6.4,22.4c-44.8,38.4 -96,67.2 -150.4,89.6c-9.6,3.2 -16,0 -22.4,-6.4c-35.2,-35.2 -80,-57.6 -128,-57.6c-48,0 -96,19.2 -128,57.6c-3.2,3.2 -9.6,6.4 -16,6.4c-3.2,0 -6.4,0 -6.4,0z" />
        <animateTransform attributeName="transform" attributeType="XML" type="rotate" from="0" to="180"
            begin="mouseenter" repeatCount="1" dur=".4s" fill="freeze" />
        <animateTransform attributeName="transform" attributeType="XML" type="scale" values=".8 .8" repeatCount="1"
            begin="mouseenter" dur=".2s" additive="sum" fill="freeze" />
    </svg>
