<svg width="1024" height="1024" viewBox="0 0 1024 1024" xmlns="http://www.w3.org/2000/svg" t="1658502132475" fill="#00ccff"
    class="icon" version="1.1" p-id="2330">
    <g>
        <title>Layer 1</title>
        <path
            d="m836.88862,961.33417l-672,0c-52.8,0 -96,-43.2 -96,-96l0,-512c0,-52.8 43.2,-96 96,-96l672,0c52.8,0 96,43.2 96,96l0,512c0,52.8 -43.2,96 -96,96zm-672,-640c-17.6,0 -32,14.4 -32,32l0,512c0,17.6 14.4,32 32,32l672,0c17.6,0 32,-14.4 32,-32l0,-512c0,-17.6 -14.4,-32 -32,-32l-672,0z"
            p-id="2333" id="svg_3" />
        <path
            d="m436.88862,321.33417c-8,0 -16,-3.2 -22.4,-9.6l-160,-160c-12.8,-12.8 -12.8,-32 0,-44.8c12.8,-12.8 32,-12.8 44.8,0l160,160c12.8,12.8 12.8,32 0,44.8c-6.4,6.4 -14.4,9.6 -22.4,9.6zm128,0c-8,0 -16,-3.2 -22.4,-9.6c-12.8,-12.8 -12.8,-32 0,-44.8l160,-160c12.8,-12.8 32,-12.8 44.8,0c12.8,12.8 12.8,32 0,44.8l-160,160c-6.4,6.4 -14.4,9.6 -22.4,9.6z"
            p-id="2334" id="svg_4" />
        <ellipse stroke-width="0" cx="300" cy="512.00003" id="svg_8" rx="46.6678" ry="66.27788" stroke="null" />
        <ellipse stroke-width="0" cx="700" cy="512.00001" id="svg_9" rx="46.6678" ry="66.27788" stroke="null" />
        <path stroke-width="0"
            d="m456.71143,684.82676l57.23061,0l0,0c7.49737,0 13.57518,14.42673 13.57518,32.223c0,17.79626 -6.07781,32.22299 -13.57518,32.22299l-57.23061,0l0,0c-7.49736,0 -13.57518,-14.42673 -13.57518,-32.22299c0,-17.79628 6.07782,-32.223 13.57518,-32.223z"
            id="svg_10" stroke="null" />
    </g>

</svg>