<svg viewBox="0 0 1024 1024" width="32" height="32" xmlns="http://www.w3.org/2000/svg" data-spm-anchor-id="a313x.7781069.0.i12"
     version="1.1" class="icon">
    <g>
        <title>Layer 1</title>
        <path id="svg_2" fill="#22C67F"
              d="m663.63844,358.00048c31.36775,-29.13159 54.05807,-68.52045 60.77271,-109.87928c8.73477,-53.80108 -9.70745,-103.96531 -51.92122,-141.23679c-28.06163,-24.78929 -63.1768,-36.3766 -101.69844,-33.6121c-47.8308,3.49349 -95.50699,29.4326 -130.82182,71.18255c-33.41348,39.52709 -50.5953,89.38109 -47.10078,136.75832c0.90614,12.47194 11.96308,21.87019 24.23639,20.919c12.47195,-0.90614 21.84767,-11.76445 20.919,-24.23639c-2.60886,-35.66807 10.70268,-73.64807 36.53121,-104.20798c27.4862,-32.49505 63.77474,-52.63999 99.53087,-55.24988c26.02716,-1.85732 49.71065,5.8597 68.41806,22.3893c38.6312,34.10972 41.55029,73.22726 37.19469,100.03974c-7.56242,46.61443 -43.18749,92.05753 -86.61763,110.51c-4.17541,1.77132 -7.18665,4.86243 -9.55183,8.35695c-25.44764,1.88395 -57.43996,3.50578 -92.5449,3.50578c-53.08026,0 -96.69368,-4.80509 -122.97374,-8.6119c-0.17816,-0.14334 -0.25597,-0.35938 -0.43925,-0.49863c-9.88459,-7.51839 -41.08647,-59.01982 -51.83317,-83.56543c-18.57533,-42.524 -5.8597,-88.86198 29.60974,-107.79055c3.67063,-1.96791 14.72757,-7.92794 39.75951,-0.73003c12.14021,3.50476 24.56813,-3.50476 28.0176,-15.51186c3.44947,-12.01837 -3.4935,-24.55687 -15.50162,-28.00634c-28.68108,-8.23715 -52.71781,-6.82214 -73.59278,4.29008c-56.54305,30.18414 -77.92689,101.4998 -49.77721,165.89298c5.12045,11.71427 22.13947,43.97485 39.52299,69.78802c-135.86753,71.54604 -187.17238,255.24642 -187.17238,357.8469c0,205.29822 188.27101,232.97282 372.4516,232.97282c183.9154,0 395.00677,-26.48075 395.00677,-232.97282c0,-107.46598 -79.20777,-318.65871 -230.42437,-358.34246zm-164.5824,546.03088c-235.43833,0 -327.16412,-52.61849 -327.16412,-187.68535c0,-99.79708 51.98777,-263.17949 167.3305,-320.47508c19.94631,3.67063 76.53338,12.65931 151.76233,12.65931c25.07803,0 48.2721,-0.81398 69.02523,-1.92899c14.08866,23.00465 33.79539,65.91466 32.21758,123.53483c-6.81396,3.40135 -11.61086,10.26855 -11.61086,18.40127c0,11.45727 9.28766,20.74596 20.74596,20.74596c11.45728,0 20.74597,-9.28869 20.74597,-20.74596c0,-6.26106 -2.91603,-11.69277 -7.30133,-15.49548c2.09692,-56.90243 -14.43678,-100.61517 -29.38858,-128.02253c3.68189,-0.26826 7.14672,-0.53344 10.55933,-0.80989c15.47091,20.78897 74.93407,108.79293 95.51109,253.30513c-4.95765,3.79145 -8.36514,9.48937 -8.36514,16.2122c0,11.45728 9.28869,20.74597 20.74597,20.74597c11.45727,0 20.74596,-9.28869 20.74596,-20.74597c0,-7.61361 -4.30339,-13.98832 -10.41803,-17.59649c-18.68386,-133.86174 -68.53786,-219.96948 -92.05548,-254.29421c10.10882,-1.03924 17.75007,-1.95459 21.93162,-2.49213c132.4795,26.89951 204.7013,222.70017 204.7013,317.00206c0,131.55083 -104.59501,187.68535 -349.7193,187.68535z"/>
    </g>
</svg>
