<svg slot="button_active" viewBox="0 0 1024 1024" xmlns="http://www.w3.org/2000/svg"  class="icon"
    version="1.1">
    <g fill="#C13721">
        <title>Layer 1</title>
        <path stroke="#000000" fill="none" stroke-width="80" opacity="undefined"
            d="m512,913.5c-221.8232,0 -401.5,-179.6768 -401.5,-401.5c0,-221.8232 179.6768,-401.5 401.5,-401.5c221.8232,0 401.5,179.6768 401.5,401.5c0,221.8232 -179.6768,401.5 -401.5,401.5z"
            id="svg_2" />
        <path
            d="m564.52866,548.86219zm-158.50751,-112.42975l16.58799,0c0,1.84312 -3.68622,1.84312 -5.52933,1.84312l-5.52933,0c-1.84311,0 -3.68622,0 -5.52933,-1.84312c0,1.84312 0,1.84312 0,0zm-12.90178,1.84312c3.68622,0 7.37244,0 9.21555,-1.84312l1.84311,0c-5.52933,0 -11.05866,1.84312 -18.4311,1.84312l7.37244,0zm-27.64666,3.68622c3.68622,0 5.52933,0 9.21555,-1.84311c-1.84311,1.84311 -5.52933,1.84311 -9.21555,1.84311zm-5.52933,1.84311c-7.37244,1.84312 -12.90178,3.68622 -20.27422,5.52933l0,-1.84311c7.37244,-1.84311 14.74488,-3.68622 20.27422,-3.68622l0,-0.00001zm158.50751,60.82265l-9.21555,1.84312l-1.84311,1.84311l-1.84312,3.68622l0,3.68622l1.84312,-3.68622l0,-1.84312l1.84311,1.84312l1.84311,-1.84312l1.84311,1.84312l-1.84311,-1.84312l1.84311,1.84312l1.84312,1.84311l0,1.84311l-1.84312,1.84311l-1.84311,3.68622l-1.84311,0l1.84311,1.84311l1.84311,1.84311l-3.68622,7.37245l-3.68622,7.37244l0,1.84311l-1.84311,5.52933l0,3.68622l-1.84311,0l-1.84312,-1.84311l0,5.52933l-1.84311,1.84311l0,1.84311l1.84311,-1.84311l0,-3.68622l1.84312,1.84311l0,1.84311l1.84311,1.84311l0,3.68622l-1.84311,1.84311l-1.84312,1.84311l1.84312,1.84312l0,3.68622l0,-1.84311l-1.84312,3.68622l1.84312,1.84311l-1.84312,0l-7.37244,1.84311l0,-9.21555l1.84312,-3.68622l0,-3.68622l-1.84312,0l0,-3.68622l0,3.68622l-1.84311,0l0,-1.84312l1.84311,-1.84311l1.84312,0l1.84311,-1.84311l0,-5.52933l1.84311,0l1.84311,-3.68622l0,-1.84312l-1.84311,-1.84311l-1.84311,1.84311l-1.84311,0l0,-3.68622l-1.84312,1.84311l-1.84311,5.52933l-1.84311,7.37244l0,3.68622l-3.68622,1.84312l0,3.68622l1.84312,0l0,3.68622l3.68622,1.84311l-1.84311,0l1.84311,3.68622l-3.68622,1.84311l0,3.68622l1.84311,1.84312l-3.68622,3.68622l0,-3.68622l-1.84311,-1.84312l-3.68622,0l1.84312,0l0,-1.84311l0,1.84311l-1.84312,1.84312l0,-1.84312l-1.84311,0l0,-5.52933l0,3.68622l-3.68622,3.68622l-1.84312,1.84311l0,9.21555l1.84312,0l1.84311,-1.84311l0,3.68622l-1.84311,-1.84312l-1.84312,0l-1.84311,3.68622l0,-1.84311l0,1.84311l0,-1.84311l-1.84311,1.84311l0,1.84311l-1.84311,1.84311l-1.84312,3.68622l0,1.84311l-1.84311,1.84311l0,3.68622l1.84311,0l0,-1.84311l3.68622,-3.68622l0,-1.84311l0,3.68622l-1.84311,1.84312l-1.84312,3.68622l1.84312,0l0,1.84312l-3.68622,0l0,5.52933l0,-1.84312l-1.84311,1.84312l-1.84312,-1.84312l0,5.52933l-1.84311,3.68622l0,1.84312l-1.84311,1.84311l-1.84311,3.68622l0,3.68622l1.84311,0l-1.84311,1.84311l0,1.84312l-1.84312,3.68622l-3.68622,7.37244l0,1.84312l-3.68622,3.68622l0,1.84311l-1.84311,1.84312l1.84311,0l0,1.84311l-1.84311,1.84311l-7.37244,3.68622l0,9.21555l-3.68622,1.84311l1.84312,1.84312l-1.84312,3.68622l-1.84311,0l0,1.84311l-3.68622,1.84312l0,1.84311l-1.84312,3.68622l-1.84311,3.68622l-1.84311,3.68622l-1.84312,1.84311l-1.84311,1.84311l-3.68622,1.84311l-1.84312,0l0,1.84312l1.84312,1.84311l-3.68622,0l-1.84311,1.84311l-1.84311,0l-1.84312,1.84312l-3.68622,0l0,3.68622l-1.84312,0l-7.37244,1.84311l-3.68622,1.84312l-1.84312,0l-1.84311,1.84311l-3.68622,0l1.84311,-1.84311l-1.84311,0l-1.84312,1.84311l-1.84311,0l-1.84311,1.84311l-5.52933,0l-3.68622,1.84311l-5.52933,0l-1.84312,1.84312l-20.27422,0l-7.37244,-1.84312l-1.84311,0l-9.21555,-3.68622l-5.52933,-7.37244l-5.52933,-1.84311l0,-3.68622l-3.68622,-1.84311l-5.52933,-1.84312l-3.68622,-3.68622l-1.84311,1.84311l0,-1.84311l3.68622,0l-3.68622,-1.84311l0,-1.84312l-1.84311,-3.68622l0,-1.84311l3.68622,-5.52933l0,-1.84311l1.84311,0l3.68622,-1.84312l1.84311,0l1.84312,-1.84311l-1.84312,0l5.52933,0l1.84311,-3.68622l1.84311,0l5.52933,-1.84312l5.52933,-3.68622l0,-1.84312l1.84311,0l0,1.84312l1.84312,-1.84312l0,-3.68622l1.84311,0l1.84311,-1.84311l1.84311,0l1.84312,-3.68622l12.90178,-12.90178l1.84311,-3.68622l3.68622,-5.52933l1.84312,-3.68622l1.84311,-1.84311l1.84311,-3.68622l3.68622,-1.84311l1.84311,-3.68622l1.84311,-1.84312l0,-1.84311l1.84312,0l0,1.84311l1.84311,0l1.84311,-3.68622l0,-3.68622l1.84311,-1.84311l0,1.84311l1.84312,-1.84311l1.84311,-1.84311l0,-3.68622l0,1.84311l3.68622,-1.84311l1.84311,-5.52933l0,-1.84311l1.84311,-3.68622l1.84311,-1.84312l1.84312,-1.84311l0,1.84311l35.0191,-55.29332l1.84311,-3.68622l-1.84311,0l1.84311,-1.84312l0,-1.84311l1.84311,-3.68622l1.84312,0l0,-1.84311l1.84311,-1.84311l0,1.84311l1.84311,-1.84311l0,-3.68622l7.37244,-7.37244l-9.21555,-1.84311l0,-1.84311l1.84311,-1.84312l0,-1.84311l1.84311,-3.68622l-1.84311,0l0,1.84311l-1.84311,-1.84311l0,-1.84312c-3.68622,0 -5.52933,0 -9.21555,1.84312c-1.84312,0 -5.52933,0 -7.37245,1.84311c-1.84311,1.84311 -3.68622,1.84311 -5.52933,1.84311c-5.52933,1.84311 0,1.84311 -3.68622,3.68622c-1.84311,0 -3.68622,1.84311 -5.52933,3.68622c-1.84311,1.84311 -5.52933,3.68622 -9.21555,3.68622l-7.37244,0c1.84311,0 3.68622,-1.84312 5.52933,-1.84312c1.84311,0 3.68622,0 5.52933,-1.84311c-9.21555,0 -25.80354,1.84311 -23.96043,1.84311c-1.84311,-1.84311 -3.68622,-1.84311 -5.52933,0c0,1.84312 0,1.84312 -3.68622,1.84312c1.84311,0 1.84311,-1.84312 3.68622,-1.84312c-3.68622,0 -5.52933,0 -7.37244,1.84312c-1.84311,1.84311 -3.68622,0 -1.84311,0l-1.84312,0c-1.84311,1.84311 -1.84311,3.68622 -3.68622,3.68622l-5.52933,0c-1.84311,0 -3.68622,0 -5.52933,1.84311c0,0 -1.84311,0 -1.84311,1.84312c-1.84311,-1.84312 -7.37244,-3.68622 -7.37244,-3.68622c-1.84311,-1.84311 -5.52933,-3.68622 -5.52933,-7.37244c0,0 -1.84311,-3.68622 -3.68622,-5.52933c0,-1.84311 -3.68622,-7.37244 -5.52933,-7.37244c0,-1.84311 -1.84311,-5.52933 -1.84311,-5.52933c-3.68622,-3.68622 -3.68622,-11.05866 -5.52933,-14.74488c-1.84312,-1.84311 -1.84312,-5.52933 -1.84311,-9.21555l-1.84312,0c0,-1.84311 0,-7.37244 1.84312,-9.21556l0,-7.37244c0,-1.84311 -1.84312,-5.52933 -1.84312,-7.37244c0,-3.68622 0,-7.37244 3.68622,-9.21555c0,0 1.84311,0 1.84311,3.68622c0,1.84312 1.84311,1.84312 3.68622,1.84312c3.68622,0 5.52933,0 9.21555,-1.84312l1.84311,0c1.84312,0 3.68622,1.84312 5.52933,0c1.84311,-1.84311 3.68622,-1.84311 5.52933,-1.84311l1.84311,0c-1.84311,1.84312 -5.52933,5.52933 -7.37244,5.52933c-1.84311,0 -3.68622,1.84311 -3.68622,1.84311c1.84311,0 3.68622,0 5.52933,-1.84311l0,1.84311c5.52933,0 9.21556,0 14.74489,-1.84311c5.52933,0 12.90177,-1.84311 18.4311,-1.84311c11.05867,0 20.27422,-3.68622 29.48977,-5.52933c7.37245,-1.84311 33.17599,-7.37244 38.70533,-7.37244l3.68622,0c0,-1.84311 1.84311,-1.84311 3.68622,-1.84311l0,1.84311l1.84312,0l1.84311,-1.84311l7.37244,0c0,-1.84312 0,-3.68622 1.84311,-3.68622c0,0 -1.84311,0 -1.84311,1.84311l0,-3.68622c0,1.84311 1.84311,1.84311 1.84311,1.84311l3.68622,0l0,-3.68622l1.84311,-1.84311l1.84311,-1.84311l-1.84311,0l0,-1.84311l1.84311,-1.84312l0,-3.68622l-1.84311,0l0,-1.84311l-1.84311,0l0,-1.84312l1.84311,-3.68622l-1.84311,1.84311l0,-5.52933l1.84311,-1.84311l0,-7.37244l1.84311,-3.68622l-1.84311,-7.37244l0,-9.21555l-1.84311,-3.68622l-1.84311,-16.58799l-1.84312,-1.84311l0,-1.84312l-1.84311,-1.84311l1.84311,-3.68622l-1.84311,0l0,-3.68622l-5.52933,-1.84311l0,-5.52933l-1.84311,-5.52933l-1.84311,-1.84311l1.84311,-3.68622l-5.52933,-1.84311l1.84311,-1.84311l0,-1.84311l-1.84311,0l-1.84311,-3.68622l-1.84311,-1.84311l0,-3.68622l1.84311,-1.84311l0,-3.68622l1.84311,0l1.84311,-1.84311l1.84312,0l1.84311,-1.84311l3.68622,0l0,-1.84311l-1.84311,0l16.588,0l3.68622,1.84311l1.84311,-1.84311l1.84312,0l3.68622,1.84311l1.84311,0l0,-1.84311l5.52933,0l3.68622,1.84311l3.68622,1.84311l5.52933,0l3.68622,1.84311l5.52933,3.68622l1.84311,1.84311l1.84311,0l1.84311,1.84311l3.68622,1.84312l1.84311,1.84311l0,3.68622l5.52933,3.68622l1.84311,3.68622l3.68622,3.68622l1.84311,3.68622l1.84311,-1.84312l1.84312,1.84312l1.84311,3.68622l1.84311,0l1.84311,3.68622l1.84312,3.68622l1.84311,1.84311l1.84311,0l0,1.84312l1.84312,1.84311l0,1.84311l1.84311,1.84312l0,1.84311l1.84311,3.68622l-1.84311,1.84312l1.84311,0l1.84311,3.68622l0,11.05867l1.84312,0l-1.84312,5.52933l0,5.52933l-1.84311,1.84312l0,3.68622l1.84311,1.84312l-1.84311,3.68622l-1.84311,1.84311l1.84311,1.84312l-5.52933,7.37244l1.84312,3.68622l0,3.68622l-1.84312,0l0,7.37244l3.68622,-1.84311l-1.84311,0l1.84311,0c1.84311,1.84311 3.68622,0 3.68622,0c1.84312,0 3.68622,-1.84312 3.68622,-1.84312l3.68622,0l0,-1.84311l1.84312,0c1.84311,0 1.84311,0 1.84311,-1.84311c3.68622,-1.84311 7.37244,0 11.05867,-1.84311c1.84311,0 5.52933,-3.68622 7.37244,-5.52933c1.84311,0 1.84311,-1.84312 3.68622,-1.84312l-5.52933,0l-1.84311,-3.68622l1.84311,0c0,-1.84311 1.84312,-3.68622 1.84312,-3.68622l3.68622,0l0,-1.84311c1.84312,0 1.84312,0 1.84312,1.84311c0,0 1.84311,0 1.84311,-1.84311s1.84311,-1.84311 1.84311,-3.68622l0,3.68622c1.84311,0 1.84311,0 3.68622,-1.84311l1.84311,-1.84311l5.52933,0c0,-1.84312 0,-1.84312 1.84311,-1.84312c1.84311,-1.84311 3.68622,-1.84311 3.68622,-1.84311l1.84311,0s3.68622,1.84311 3.68622,0c0,0 1.84312,-1.84311 3.68622,-1.84311l-1.84311,-1.84312l-1.84312,1.84312c-1.84311,0 -3.68622,-1.84312 -1.84311,-1.84312c1.84311,-1.84311 3.68622,-1.84311 5.52933,-1.84311c0,0 0,-1.84311 1.84311,-1.84311l3.68622,0s1.84311,1.84311 3.68622,1.84311c0,0 3.68622,-5.52933 5.52933,-5.52933c1.84311,0 1.84311,1.84312 1.84311,1.84312l0,1.84311c1.84312,-1.84311 1.84312,0 3.68622,0l0,1.84311c1.84311,0 1.84311,0 1.84311,-1.84311c0,0 1.84312,0 1.84311,-1.84311s1.84312,-1.84312 3.68622,0l1.84311,1.84311c1.84312,0 1.84312,0 3.68622,1.84311l3.68622,0s0,-1.84311 1.84312,-1.84311c0,1.84311 0,1.84311 1.84311,1.84311l1.84311,-1.84311c1.84312,0 1.84312,1.84311 1.84311,1.84311s0,1.84312 1.84312,0c0,0 3.68622,1.84312 3.68622,3.68622s0,1.84311 1.84312,3.68622l1.84311,0c1.84311,0 1.84311,0 1.84311,-1.84311s3.68622,-1.84311 3.68622,-1.84311l3.68622,-3.68622l1.84311,0l0,7.37244s1.84312,1.84312 0,1.84312l1.84312,0l0,3.68622c0,-1.84311 1.84311,-3.68622 1.84311,-5.52933l1.84311,-3.68622s1.84312,0 1.84312,1.84311c0,-1.84311 1.84311,-5.52933 3.68622,-5.52933c0,-1.84311 1.84311,0 3.68622,-1.84311l1.84311,-1.84311l1.84311,-1.84312l1.84311,1.84312l0,3.68622l1.84312,-1.84311c0,3.68622 1.84311,1.84311 3.68622,3.68622c0,0 -1.84311,1.84312 -1.84311,3.68622c0,0 1.84311,1.84311 0,3.68622l0,1.84311l1.84311,-1.84311s1.84312,0 1.84312,1.84311s1.84311,1.84311 0,3.68622c-1.84312,-1.84311 -1.84312,0 -3.68622,0c0,1.84312 -1.84311,1.84312 -1.84311,3.68622l0,-1.84311l0,-3.68622c-1.84312,0 -1.84312,1.84311 -1.84312,5.52933c-1.84311,-1.84311 -1.84311,-1.84311 -1.84311,0l0,1.84311l-1.84311,1.84311l1.84311,0c1.84312,0 3.68622,0 3.68622,1.84312l0,1.84311c0,-1.84311 1.84311,-3.68622 1.84311,-5.52933l1.84311,0l-1.84311,-1.84311l1.84311,0c1.84312,0 1.84312,0 1.84312,1.84311s0,1.84312 1.84311,3.68622c1.84311,0 1.84311,1.84311 1.84311,1.84311l0,3.68622l1.84311,0l0,1.84311c0,1.84311 1.84312,3.68622 0,3.68622l-1.84311,1.84312c-1.84311,1.84311 3.68622,1.84311 3.68622,1.84311l0,1.84311c-1.84312,1.84312 1.84311,1.84312 0,3.68622c11.05866,35.0191 -5.52933,49.76398 -7.37244,49.76398l-1.84312,1.84311l-3.68622,0c0,1.84312 -9.21556,9.21556 -11.05867,9.21556l0,-5.52933l0,1.84311c-1.84311,0 -3.68622,1.84312 -1.84311,3.68622l0,1.84311l-1.84311,1.84311c0,-1.84311 -1.84312,-1.84311 -1.84312,-3.68622l-1.84311,-1.84312s-1.84311,5.52933 -1.84311,3.68622l0,1.84311c0,-1.84311 -1.84312,-7.37244 -1.84312,-9.21555c-1.84311,-1.84311 -1.84311,7.37244 -3.68622,7.37244l-3.68622,-3.68622c0,-1.84311 -3.68622,-7.37244 -3.68622,-7.37244l0,5.52933l-1.84311,0l0,-3.68622s0,1.84311 -1.84312,0c0,-1.84312 -3.68622,-3.68622 -3.68622,-1.84312l0,5.52933c-1.84312,-1.84311 -1.84312,-1.84311 -1.84312,-3.68622c-1.84311,0 -5.52933,-1.84312 -5.52933,-1.84312l-1.84312,-1.84311l0,1.84311l-1.84311,0c0,-1.84311 -3.68622,-1.84311 -3.68622,-1.84311s1.84311,-1.84311 0,-1.84311l-1.84312,1.84311l-3.68622,0c-1.84312,0 -1.84312,1.84311 0,1.84311l-3.68622,0c0,1.84312 0,1.84312 -1.84311,1.84312c0,0 -1.84311,-1.84312 -1.84311,-3.68622c-1.84312,0 -3.68622,1.84311 -3.68622,1.84311l-5.52933,0c-1.84311,0 -3.68622,0 -3.68622,-1.84311l-5.52933,3.68622c0,-1.84312 -1.84311,-1.84312 -1.84311,-1.84312l0,3.68622c-3.68622,0 -7.37244,3.68622 -11.05867,5.52933l-5.52933,0l-11.05866,0l0,-1.84312l-1.84312,0c-1.84311,0 -3.68622,-1.84311 -1.84311,-1.84311l-3.68622,0c1.84311,0 1.84311,1.84312 3.68622,3.68622c0,1.84311 -1.84311,1.84311 -1.84311,1.84311l-3.68622,-1.84311l-3.68622,0s-3.68622,-1.84312 -3.68622,-3.68622l-1.84311,0c1.84311,0 3.68622,1.84312 3.68622,1.84311s-5.52933,3.68622 -5.52933,1.84312l-1.84312,0c-1.84311,0 -5.52933,1.84311 -5.52933,1.84311c-7.37245,0 -3.68622,1.84311 -12.90178,1.84311c0,1.84312 0,1.84312 1.84311,1.84312l-1.84311,0c0,1.84311 0,1.84311 1.84311,1.84311c-1.84311,0 -3.68622,0 -5.52933,1.84311c0,-1.84311 1.84311,-1.84311 1.84311,-3.68622c-3.68622,1.84311 -7.37244,1.84311 -11.05866,1.84311l0,1.84311c7.37244,0 12.90178,1.84311 7.37244,1.84311l-1.84311,0c3.68622,0 0,1.84312 0,3.68622l-14.74489,1.84311l-1.84311,1.84311zm22.11733,-95.84175c1.84312,-1.84311 3.68622,-1.84311 5.52933,-1.84311l-1.84311,0l-1.84311,0l1.84311,0c0,3.68622 -1.84311,3.68622 -3.68622,1.84311c0,1.84312 1.84312,1.84312 0,0zm191.68351,258.03549l0,7.37245l0,-3.68622l0,1.84311l-3.68622,0l-3.68622,14.74488l0,7.37245l-1.84312,1.84311l0,1.84311l-1.84311,1.84311l0,1.84312l-5.52933,0l-1.84311,3.68622l-3.68622,0l0,3.68622l0,-1.84312l0,3.68622l-1.84312,0l0,-1.84311l0,5.52933l0,-3.68622l0,1.84311l-1.84311,0l0,5.52933l-1.84311,0l-1.84312,1.84312l-1.84311,0l0,1.84311l0,-3.68622l0,1.84312l-1.84311,3.68622l0,-7.37244l0,1.84311l-1.84311,3.68622l0,1.84311l0,-9.21555l-1.84312,-1.84312l-1.84311,-3.68622l0,-3.68622l-5.52933,0l-1.84311,-1.84311l-3.68622,0l-1.84311,-1.84311l-3.68622,0l0,1.84311l0,-3.68622l-1.84312,-1.84311l-1.84311,0l0,-3.68622l-7.37244,0l0,-1.84312l-1.84311,-1.84311l-1.84312,0l-3.68622,-5.52933l-5.52933,-5.52933l-5.52933,-3.68622l-1.84311,0l0,-1.84311l-1.84311,-1.84312l-1.84312,-1.84311l-1.84311,0l0,-1.84311l-3.68622,0l0,-1.84311l-42.39155,-35.01911l0,-1.84311l-1.84311,0l-1.84311,-1.84311l0,1.84311l-1.84312,0l-1.84311,-3.68622l0,-1.84311l-3.68622,-3.68622l-1.84312,0l-7.37244,-7.37244l-3.68622,-3.68622l-1.84311,-1.84311l-1.84312,-1.84311l-1.84311,-3.68622l-1.84311,0l-1.84312,-1.84311l-1.84311,0l0,-1.84311l-1.84311,0l-1.84311,-1.84312l0,-3.68622l-1.84312,-1.84312l-1.84311,0l-1.84311,-1.84311l-1.84311,-1.84311l-1.84312,-1.84311l-1.84311,-1.84312l-1.84311,-1.84311l-1.84312,0l0,-1.84311l-3.68622,-3.68622l-1.84311,0l1.84311,0l0,-1.84311l0,1.84311l5.52933,0l0,1.84312l3.68622,0l-1.84311,0l0,-1.84312l1.84311,0l-1.84311,-1.84311l-1.84311,-1.84311l-1.84312,-1.84312l-1.84311,0l-1.84311,-1.84311l0,-1.84311l1.84311,0l-12.90178,-9.21555l-3.68622,0l-1.84312,-1.84312l0,-1.84311l-1.84311,0l0,-1.84311l9.21555,0l3.68622,1.84311l1.84311,0l0,1.84311l1.84311,0l0,1.84312l5.52933,0l1.84312,-1.84312l5.52933,0l0,-5.52933l1.84312,0l0,1.84312l1.84311,1.84311l9.21555,0l-1.84311,0l-1.84311,-1.84311l0,-1.84312l-1.84312,0l1.84312,0l1.84311,1.84312l1.84311,0l-1.84311,0l1.84311,0l1.84312,1.84311l1.84311,0l0,1.84311l3.68622,0l0,-5.52933l1.84312,0l0,-1.84311l1.84311,0l0,-1.84311l-1.84311,-1.84311l1.84311,0l0,-1.84312l-1.84311,0l0,-1.84311l-1.84312,0l0,-1.84311l1.84312,0l1.84311,1.84311l3.68622,0l0,1.84311l1.84312,-1.84311l1.84311,0l0,1.84311l1.84311,0l-1.84311,-1.84311l0,-1.84311l0,5.52933l1.84311,0l0,-1.84312l-1.84311,0l1.84311,0l3.68622,1.84312l3.68622,0l1.84312,1.84311l1.84311,0l1.84311,1.84311l0,1.84311l3.68622,0l3.68622,1.84312l1.84312,0l0,-1.84312l5.52933,0l3.68622,1.84312l0,1.84311l1.84311,0l1.84311,1.84311l1.84312,0l5.52933,3.68622l0,1.84311l3.68622,1.84311l3.68622,0l3.68622,3.68622l7.37244,5.52933l1.84312,1.84311l1.84311,1.84311l1.84311,0l0,-1.84311l3.68622,0l1.84311,1.84311l1.84311,0l0,1.84311l11.05867,0l0,1.84312l3.68622,0l0,1.84311l1.84312,0l0,1.84311l3.68622,0l0,1.84311l3.68622,0l0,1.84312l5.52933,0l1.84311,1.84311l1.84311,0l0,1.84311l1.84311,1.84312l1.84312,0l1.84311,1.84311l0,1.84311l1.84311,0l1.84311,1.84311l1.84312,0l0,1.84312l1.84311,1.84311l7.37244,0l1.84311,1.84311l0,1.84311l1.84312,1.84312l3.68622,1.84311l1.84311,3.68622l1.84312,0l0,1.84311l3.68622,3.68622l3.68622,5.52933l0,3.68622l5.52933,38.70532l0,-1.84311l0,1.84311z"
            id="svg_1" />
    </g>
</svg>