<svg class="icon" viewBox="0 0 1024 1024" version="1.1" xmlns="http://www.w3.org/2000/svg"
     width="64" height="64">
    <path d="M879.193333 896H176.18a53.26 53.26 0 0 1-52.52-44.066667l-116.706667-661.333333A53.333333 53.333333 0 0 1 59.473333 128h703.013334a53.26 53.26 0 0 1 52.52 44.066667l7.286666 41.266666H1002.666667a21.333333 21.333333 0 0 1 0 42.666667h-172.846667l60.233333 341.333333H938.666667a21.333333 21.333333 0 0 1 0 42.666667h-41.08l34.126666 193.4a53.333333 53.333333 0 0 1-52.52 62.6z m-713.52-51.48a10.666667 10.666667 0 0 0 10.506667 8.813333h703.013333a10.666667 10.666667 0 0 0 10.5-12.52L854.26 640H746.666667a21.333333 21.333333 0 0 1 0-42.666667h100.06l-73.733334-417.853333a10.666667 10.666667 0 0 0-10.506666-8.813333H59.473333a10.666667 10.666667 0 0 0-10.5 12.52l116.7 661.333333zM1002.666667 810.666667h-21.333334a21.333333 21.333333 0 0 1 0-42.666667h21.333334a21.333333 21.333333 0 0 1 0 42.666667zM576 640a21.266667 21.266667 0 0 1-15.086667-6.246667L448 520.833333 335.086667 633.753333a21.333333 21.333333 0 0 1-30.173334-30.173333L417.833333 490.666667 304.913333 377.753333a21.333333 21.333333 0 0 1 30.173334-30.173333L448 460.5l112.913333-112.92a21.333333 21.333333 0 0 1 30.173334 30.173333L478.166667 490.666667l112.92 112.913333A21.333333 21.333333 0 0 1 576 640z m426.666667-170.666667h-85.333334a21.333333 21.333333 0 0 1 0-42.666666h85.333334a21.333333 21.333333 0 0 1 0 42.666666z"
          fill="#99a2aa" ></path>
</svg>
