<svg class="icon" viewBox="0 0 1024 1024" version="1.1" xmlns="http://www.w3.org/2000/svg"
     data-spm-anchor-id="a313x.7781069.0.i29" width="100" height="100">
    <path d="M514 114.3c-219.9 0-398.8 178.9-398.8 398.8 0 220 178.9 398.9 398.8 398.9s398.8-178.9 398.8-398.9c0-219.8-178.9-398.8-398.8-398.8zM460.4 740c-4.3 6.8-14.3 6.7-18.3-0.3-25.6-44.6-106.2-169.6-225.4-207.2l52.6-34.2c50.3-32.7 118.1-18.2 149.5 32.9 22.7 36.9 32.1 73.6 32.1 73.6s120.8-272 288.7-323c0 0-52.4 119.7 24.1 206.1-0.2 0-174.4 48.5-303.3 252.1z"
          class="selected" fill="#4ddda8"></path>
</svg>